HIERARCHY
ROOT Hips
{
  OFFSET 0 0 0
  CHANNELS 6 Xposition Yposition Zposition Zrotation Yrotation Xrotation
  JOINT LeftThigh
  {
    OFFSET 8.409438 0 -5.917753
    CHANNELS 3 Zrotation Yrotation Xrotation
    JOINT LeftLeg
    {
      OFFSET 0 0 -42.358652
      CHANNELS 3 Zrotation Yrotation Xrotation
      JOINT LeftFoot
      {
        OFFSET 0 0 -39.357303
        CHANNELS 3 Zrotation Yrotation Xrotation
      }
    }
  }
  JOINT RightThigh
  {
    OFFSET -8.409438 0 -5.917753
    CHANNELS 3 Zrotation Yrotation Xrotation
    JOINT RightLeg
    {
      OFFSET 0 0 -42.358652
      CHANNELS 3 Zrotation Yrotation Xrotation
      JOINT RightFoot
      {
        OFFSET 0 0 -39.357303
        CHANNELS 3 Zrotation Yrotation Xrotation
      }
    }
  }
  JOINT SpineLow
  {
    OFFSET 0 0 4.719101
    CHANNELS 3 Zrotation Yrotation Xrotation
    JOINT SpineMid
    {
      OFFSET 0 0 12.899191
      CHANNELS 3 Zrotation Yrotation Xrotation
      JOINT Chest
      {
        OFFSET 0 0 12.899191
        CHANNELS 3 Zrotation Yrotation Xrotation
        JOINT LeftShoulder
        {
          OFFSET 7.550562 1.41573 9.438202
          CHANNELS 3 Zrotation Yrotation Xrotation
          JOINT LeftArm
          {
            OFFSET 9.155056 0 4.247191
            CHANNELS 3 Zrotation Yrotation Xrotation
            JOINT LeftForearm
            {
              OFFSET 0 0 25.771955
              CHANNELS 3 Zrotation Yrotation Xrotation
              JOINT LeftHand
              {
                OFFSET 0 0 25.197169
                CHANNELS 3 Zrotation Yrotation Xrotation
              }
            }
          }
        }
        JOINT RightShoulder
        {
          OFFSET -7.550562 1.41573 9.438202
          CHANNELS 3 Zrotation Yrotation Xrotation
          JOINT RightArm
          {
            OFFSET -9.155056 0 4.247191
            CHANNELS 3 Zrotation Yrotation Xrotation
            JOINT RightForearm
            {
              OFFSET 0 0 -25.771955
              CHANNELS 3 Zrotation Yrotation Xrotation
              JOINT RightHand
              {
                OFFSET 0 0 -25.197169
                CHANNELS 3 Zrotation Yrotation Xrotation
              }
            }
          }
        }
        JOINT Neck
        {
          OFFSET 0 0 15.101124
          CHANNELS 3 Zrotation Yrotation Xrotation
          JOINT Head
          {
            OFFSET 0 0 11.325843
            CHANNELS 3 Zrotation Yrotation Xrotation
            End Site
            {
              OFFSET 0 0 14.157303
            }
          }
        }
      }
    }
  }
}
MOTION
Frames: 11
Frame Time: 0.0
0.0  101.685394  0.0  126.173114  -41.00404  153.177857  50.25702  -37.570135  8.93141  6.475846  -5.774084  16.789677  -21.519824  -9.772013  -2.171848  5.979425  29.096379  -21.765681  5.021415  -1.345694  23.337057  20.958905  12.795624  2.096527  3.392868  3.320821  3.91973  9.836184  8.476959  11.214828  9.836184  8.476959  11.214829  2.42092  18.915875  10.33198  159.723573  34.71018  163.170315  -45.060704  24.708054  73.906992  61.833252  -41.747758  32.743047  20.000016  -5.096657  20.887077  100.20032  72.686093  15.473854  -24.220433  -16.613383  -95.782191  77.35968  36.667332  16.576812  11.032273  16.535565  4.055025  8.10363  12.479459  2.714724  
0.0  101.685394  0.0  126.311493  -41.093393  153.042827  52.259328  -37.283086  5.769369  9.766675  -7.853201  20.821774  -23.759845  -10.140438  -2.804425  5.340086  28.67607  -21.903312  5.854297  -1.45695  23.352397  20.74022  12.862692  2.279012  3.445195  3.208421  3.977574  9.964002  8.153538  11.359183  9.964003  8.153539  11.359183  3.965383  19.435429  10.837009  160.099886  34.418309  163.573732  -44.964504  25.446071  74.011433  61.35738  -41.599694  34.2832  20.843338  -5.260775  21.36732  104.105296  73.433926  19.208539  -23.885336  -16.91385  -95.83917  77.313672  36.298456  16.789862  11.337412  16.784877  3.92064  8.330987  12.666256  2.600559  
0.0  101.685394  0.0  125.803872  -41.362812  153.252079  49.9744  -36.627721  4.544033  11.979327  -9.237791  25.170106  -23.624014  -10.038137  -2.992118  3.734895  28.131088  -22.810162  8.32537  -1.660008  24.10263  19.059873  12.381093  2.141986  3.3665  3.115088  4.115722  9.745841  7.892823  11.711702  9.745841  7.892822  11.711701  5.768178  19.892461  10.741608  160.24202  33.918449  163.751792  -44.194958  24.499639  74.505616  60.776907  -42.349721  35.213628  22.150052  -5.028594  21.502393  105.019323  74.138807  20.299154  -22.866801  -17.083838  -96.309356  77.190883  35.976811  16.767168  11.658295  17.029356  3.385306  8.581505  12.841738  2.187223  
0.0  101.685394  0.0  124.911285  -41.709783  153.818243  44.382224  -36.384153  4.831117  14.440187  -9.190115  30.158384  -23.001607  -9.860482  -3.093232  1.341003  27.615663  -23.938717  10.009601  -2.214178  24.802949  18.61534  12.615411  2.366557  3.423314  3.085799  4.295059  9.915094  7.775164  12.203653  9.915094  7.775164  12.203653  6.443635  19.805999  10.32467  160.281421  33.381899  163.759776  -42.894395  22.109674  75.154916  59.923495  -43.73382  35.693255  22.583636  -5.117179  21.248002  104.11179  74.848857  19.746688  -21.596462  -17.222797  -96.977624  76.981738  35.711522  16.594133  11.28257  16.856033  2.670295  8.324285  12.696069  1.669249  
0.0  101.685394  0.0  123.77592  -42.01464  154.801849  37.464605  -36.203596  5.776808  16.704428  -7.822622  35.244791  -22.130994  -9.657153  -3.210293  -0.723718  27.315849  -25.156272  10.716792  -2.710784  25.710554  18.076164  12.828019  2.470387  3.661433  3.11345  4.464466  10.590353  7.777127  12.698396  10.590353  7.777127  12.698395  5.791366  19.126001  9.806995  160.302081  32.980538  163.648126  -41.600873  19.45011  75.60054  58.923771  -45.25036  35.930092  21.895653  -5.727127  20.684766  103.953305  75.435024  19.860367  -20.673907  -17.407768  -97.542192  76.70012  35.48664  16.373632  10.230171  16.309306  2.002328  7.565203  12.269288  1.21207  
0.0  101.685394  0.0  122.289639  -42.228382  156.23913  31.764038  -35.697797  6.396297  17.445603  -5.486118  39.448627  -20.707736  -9.389235  -3.316346  -2.32656  27.473093  -26.218991  10.680135  -2.939612  26.694926  18.072903  12.960511  2.554345  3.92596  3.182897  4.680216  11.352234  7.875087  13.33118  11.352233  7.875087  13.33118  4.548068  18.470316  8.849478  160.337647  32.919556  163.370025  -40.47544  17.423218  75.877773  57.689624  -46.433363  36.296578  20.888643  -6.274707  19.643338  106.095095  75.945083  22.006906  -20.482895  -17.697849  -97.815744  76.542665  35.236233  16.358148  8.922521  15.75841  1.218682  6.616857  11.839409  0.672961  
0.0  101.685394  0.0  120.058902  -42.524202  158.067131  28.454361  -35.401042  6.309303  15.794142  -2.007668  42.255676  -18.79381  -9.144857  -3.235019  -3.867143  27.956419  -26.794246  10.048419  -3.116265  27.554152  17.784623  12.801614  2.480924  4.085712  3.239275  4.942594  11.830599  7.946314  14.077917  11.830599  7.946314  14.077916  3.328347  18.013092  7.828392  160.516018  33.135283  163.150341  -39.743213  16.321228  75.936434  56.402425  -47.093352  36.970122  20.090553  -6.725553  18.41735  110.964649  76.275494  26.69078  -20.999374  -17.977928  -97.779297  76.4857  34.857856  16.592298  7.754089  15.320223  0.46055  5.768552  11.49811  0.144754  
0.0  101.685394  0.0  117.55791  -42.735587  159.794364  26.77686  -35.191305  5.822174  12.577748  1.682797  44.168306  -16.147346  -8.513151  -3.010836  -5.12145  28.568744  -26.723997  9.463633  -3.088843  28.147324  17.904108  12.911539  2.626549  4.170879  3.264273  5.149045  12.091835  7.956381  14.657009  12.091836  7.956381  14.65701  2.651616  17.757784  7.310212  160.710496  33.405192  162.831215  -39.406635  15.879988  75.858397  55.120843  -47.26223  37.768202  19.758381  -7.222183  17.842443  117.208827  76.470642  32.768004  -21.901441  -18.084127  -97.57614  76.3034  34.408319  16.815209  7.02392  14.959129  0.08739  5.235358  11.222061  -0.110327  
0.0  101.685394  0.0  114.903141  -42.956546  161.593983  25.468874  -34.58729  4.914204  10.008767  4.851635  46.010028  -13.399022  -8.041039  -2.762695  -6.292317  29.149236  -26.363249  9.064279  -2.984487  28.504807  17.744747  13.030015  2.746372  4.184612  3.233516  5.189588  12.125882  7.862359  14.762515  12.125882  7.862358  14.762516  2.746165  17.766885  7.835196  160.894157  33.810537  162.541787  -39.344541  15.685346  75.622827  53.765223  -47.134354  38.541312  19.86863  -7.842321  18.247532  122.827015  76.477114  38.397843  -22.713571  -18.128669  -97.375298  76.121162  33.986167  16.95574  6.812013  14.678846  0.317107  5.072875  11.014232  0.069656  
0.0  101.685394  0.0  112.122737  -43.274332  163.662633  24.879164  -34.149057  3.086578  8.344676  7.412304  48.070524  -10.997225  -7.683599  -2.497665  -7.432263  29.579226  -25.930718  8.906785  -2.896569  28.692512  17.330476  13.233632  2.866875  4.166871  3.158671  5.114908  12.050651  7.677994  14.540115  12.050652  7.677994  14.540116  3.214816  17.927702  8.83325  161.021747  34.311868  162.352686  -39.399851  15.296781  75.149826  52.140501  -46.921691  39.46575  20.013105  -8.443219  19.254678  127.084855  76.518058  42.832864  -23.094609  -18.142221  -97.424485  75.864302  33.626499  17.073632  6.814527  14.476214  0.859832  5.062561  10.868267  0.476931  
0.0  101.685394  0.0  109.312467  -43.578504  166.214946  25.156028  -34.359211  0.15113  8.069442  9.832927  50.533292  -9.223711  -7.690074  -2.141595  -8.566892  29.949976  -25.802396  8.87416  -2.928346  28.765154  16.569709  13.510617  2.993147  4.157042  3.094289  4.987392  11.99466  7.529888  14.176669  11.994659  7.529887  14.176668  3.644469  18.063304  9.600395  161.120284  34.787346  162.364563  -39.413438  14.420967  74.533009  50.598882  -46.812472  40.305399  20.134545  -9.016976  20.204207  129.705684  76.611863  46.002152  -21.957521  -19.741553  -97.671533  77.462065  33.975041  17.899044  6.730381  14.32814  1.376877  4.988245  10.762732  0.866549  
